<svg xmlns="http://www.w3.org/2000/svg" xmlns:xlink="http://www.w3.org/1999/xlink">

    <symbol id="open" fill-rule="evenodd" clip-rule="evenodd" stroke-linejoin="round" stroke-miterlimit="1.414" viewBox="0 0 640 640"><path d="M384 64C366.3 64 352 78.3 352 96C352 113.7 366.3 128 384 128L466.7 128L265.3 329.4C252.8 341.9 252.8 362.2 265.3 374.7C277.8 387.2 298.1 387.2 310.6 374.7L512 173.3L512 256C512 273.7 526.3 288 544 288C561.7 288 576 273.7 576 256L576 96C576 78.3 561.7 64 544 64L384 64zM144 160C99.8 160 64 195.8 64 240L64 496C64 540.2 99.8 576 144 576L400 576C444.2 576 480 540.2 480 496L480 416C480 398.3 465.7 384 448 384C430.3 384 416 398.3 416 416L416 496C416 504.8 408.8 512 400 512L144 512C135.2 512 128 504.8 128 496L128 240C128 231.2 135.2 224 144 224L224 224C241.7 224 256 209.7 256 192C256 174.3 241.7 160 224 160L144 160z"/></symbol>
    <symbol id="envelope" fill-rule="evenodd" clip-rule="evenodd" stroke-linejoin="round" stroke-miterlimit="1.414" viewBox="0 0 640 640"><path d="M112 128C85.5 128 64 149.5 64 176C64 191.1 71.1 205.3 83.2 214.4L291.2 370.4C308.3 383.2 331.7 383.2 348.8 370.4L556.8 214.4C568.9 205.3 576 191.1 576 176C576 149.5 554.5 128 528 128L112 128zM64 260L64 448C64 483.3 92.7 512 128 512L512 512C547.3 512 576 483.3 576 448L576 260L377.6 408.8C343.5 434.4 296.5 434.4 262.4 408.8L64 260z"/></symbol>

</svg>
